HIERARCHY
ROOT root
{
	OFFSET 0.000000 0.000000 0.000000
	CHANNELS 6 Xposition Yposition Zposition Zrotation Yrotation Xrotation
	JOINT lhip
	{
		OFFSET 0.058581 -0.082280 -0.017664
		CHANNELS 3 Zrotation Yrotation Xrotation
		JOINT lknee
		{
			OFFSET 0.043451 -0.386469 0.008037
			CHANNELS 3 Zrotation Yrotation Xrotation
			JOINT lankle
			{
				OFFSET -0.014790 -0.426874 -0.037428
				CHANNELS 3 Zrotation Yrotation Xrotation
				JOINT ltoe
				{
					OFFSET 0.041054 -0.060286 0.122042
					CHANNELS 3 Zrotation Yrotation Xrotation
					End Site
					{
						OFFSET 0.000000 0.000000 0.000000
					}
				}
			}
		}
	}
	JOINT rhip
	{
		OFFSET -0.060310 -0.090513 -0.013543
		CHANNELS 3 Zrotation Yrotation Xrotation
		JOINT rknee
		{
			OFFSET -0.043257 -0.383688 -0.004843
			CHANNELS 3 Zrotation Yrotation Xrotation
			JOINT rankle
			{
				OFFSET 0.019056 -0.420046 -0.034562
				CHANNELS 3 Zrotation Yrotation Xrotation
				JOINT rtoe
				{
					OFFSET -0.034840 -0.062106 0.130323
					CHANNELS 3 Zrotation Yrotation Xrotation
					End Site
					{
						OFFSET 0.000000 0.000000 0.000000
					}
				}
			}
		}
	}
	JOINT lowerback
	{
		OFFSET 0.004439 0.124404 -0.038385
		CHANNELS 3 Zrotation Yrotation Xrotation
		JOINT upperback
		{
			OFFSET 0.004488 0.137956 0.026820
			CHANNELS 3 Zrotation Yrotation Xrotation
			JOINT chest
			{
				OFFSET -0.002265 0.056032 0.002855
				CHANNELS 3 Zrotation Yrotation Xrotation
				JOINT lowerneck
				{
					OFFSET -0.013390 0.211636 -0.033468
					CHANNELS 3 Zrotation Yrotation Xrotation
					JOINT upperneck
					{
						OFFSET 0.010113 0.088937 0.050410
						CHANNELS 3 Zrotation Yrotation Xrotation
						End Site
						{
							OFFSET 0.000000 0.000000 0.000000
						}
					}
				}
				JOINT lclavicle
				{
					OFFSET 0.071702 0.114000 -0.018898
					CHANNELS 3 Zrotation Yrotation Xrotation
					JOINT lshoulder
					{
						OFFSET 0.122921 0.045205 -0.019046
						CHANNELS 3 Zrotation Yrotation Xrotation
						JOINT lelbow
						{
							OFFSET 0.255332 -0.015649 -0.022946
							CHANNELS 3 Zrotation Yrotation Xrotation
							JOINT lwrist
							{
								OFFSET 0.265709 0.012698 -0.007375
								CHANNELS 3 Zrotation Yrotation Xrotation
								End Site
								{
									OFFSET 0.000000 0.000000 0.000000
								}
							}
						}
					}
				}
				JOINT rclavicle
				{
					OFFSET -0.082954 0.112472 -0.023707
					CHANNELS 3 Zrotation Yrotation Xrotation
					JOINT rshoulder
					{
						OFFSET -0.113228 0.046853 -0.008472
						CHANNELS 3 Zrotation Yrotation Xrotation
						JOINT relbow
						{
							OFFSET -0.260127 -0.014369 -0.031269
							CHANNELS 3 Zrotation Yrotation Xrotation
							JOINT rwrist
							{
								OFFSET -0.269108 0.006794 -0.006027
								CHANNELS 3 Zrotation Yrotation Xrotation
								End Site
								{
									OFFSET 0.000000 0.000000 0.000000
								}
							}
						}
					}
				}
			}
		}
	}
}
MOTION
Frames: 7
Frame Time: 0.033333
1.258120 0.721536 0.997342 -95.658334 -0.217584 84.496730 -1.795835 -0.128011 2.845230 -0.487925 -7.899757 4.449344 3.174193 11.200661 -9.567501 0.000000 -0.000000 0.000000 1.318820 -1.630196 0.869994 -2.375415 1.630477 8.417234 1.662090 -8.946484 -8.864328 0.000000 -0.000000 0.000000 -0.811450 1.823835 5.506127 0.383218 -3.307906 5.847203 -1.357998 0.546514 -4.677333 -0.453900 -0.848886 -6.112198 3.105642 0.281448 3.029602 -31.177768 -7.486621 1.330460 -49.503725 -5.396922 16.092843 -0.126845 -18.024368 4.624444 -3.697415 -5.262613 5.786625 29.851877 11.310460 3.454033 53.926740 2.918143 19.461888 -3.171407 25.658641 6.870259 5.281688 5.419733 7.476505 
1.259239 0.720750 0.997049 -95.124267 0.115186 85.075548 -1.567921 -1.033639 1.669841 -0.457843 -7.380291 5.251976 3.211256 11.040314 -9.721822 0.000000 -0.000000 0.000000 1.602429 -1.437099 0.214171 -2.324902 0.861048 8.374779 1.739085 -8.893502 -8.473567 0.000000 -0.000000 0.000000 -0.514209 1.645099 4.896665 0.580098 -3.651895 6.056453 -1.269962 0.310648 -4.607615 -0.320298 0.083235 -6.231175 2.905353 -0.361650 2.467960 -30.710527 -7.189976 1.489739 -50.479406 -5.429505 16.034549 -0.572584 -19.324356 5.148795 -5.553769 -8.130986 6.104124 29.934107 11.296226 3.859659 54.256261 2.738573 18.951232 -3.882682 26.503985 6.036733 3.485348 6.674692 8.229320 
1.257883 0.720359 0.997672 -95.582587 -0.041315 85.041172 -1.786557 -0.736078 2.138991 -0.331338 -7.384104 4.698293 3.240882 11.171105 -9.469135 0.000000 -0.000000 0.000000 1.342440 -1.313629 0.320596 -2.206449 1.056898 8.377076 1.880929 -8.737063 -8.522060 0.000000 -0.000000 0.000000 -0.674120 1.661198 4.455235 0.530952 -3.364521 6.470337 -1.323524 0.428973 -4.655195 -0.146133 0.075230 -6.088523 2.936017 -0.364354 2.374453 -30.568991 -7.116638 1.549158 -50.705149 -5.258949 16.098110 -0.827401 -19.390480 5.348591 -6.213764 -7.783197 6.384448 29.605929 11.160874 4.068434 54.545395 2.796052 19.072000 -3.812055 26.719810 6.294343 3.602539 6.291399 8.239802 
1.258175 0.720442 0.997841 -95.735527 0.030552 85.113589 -1.664300 -0.758926 2.024091 -0.358781 -7.145385 4.774659 3.201859 11.076478 -9.570606 0.000000 -0.000000 0.000000 1.437572 -1.387112 0.142553 -2.232684 1.133927 8.481890 1.930359 -8.610886 -8.445313 0.000000 -0.000000 0.000000 -0.716096 1.756469 4.530774 0.579330 -3.381068 6.180562 -1.230802 0.405058 -4.660746 0.121414 0.147976 -6.147541 2.946732 -0.191824 2.687155 -30.467575 -7.161816 1.696148 -50.972476 -5.104283 16.421239 -1.153154 -19.380163 6.082440 -5.679389 -7.691526 6.332997 29.300777 11.093198 4.169296 54.618884 3.093727 19.030458 -3.838322 26.460684 6.267560 3.458228 6.223211 8.030865 
1.259867 0.720424 0.997732 -95.321119 0.149940 85.187444 -1.582877 -1.223298 1.434515 -0.418259 -7.094790 5.451014 3.215370 11.077180 -9.648620 0.000000 -0.000000 0.000000 1.584133 -1.268769 -0.128437 -2.236577 0.856899 8.687414 1.815093 -8.802659 -8.517447 0.000000 -0.000000 0.000000 -0.731311 1.680786 4.863661 0.660182 -3.657713 5.713930 -1.148482 0.316586 -4.487007 0.217652 0.324862 -6.334219 3.156564 -0.234669 3.041895 -30.457672 -7.317892 1.702231 -51.045293 -5.308860 16.307524 -1.321182 -19.089946 6.377050 -6.267815 -8.293840 6.620164 29.338001 11.347496 4.158008 54.306035 2.866713 19.237680 -3.946409 25.842339 7.556790 3.835286 7.268174 9.676223 
1.259976 0.720618 0.997743 -95.240386 0.166359 85.129234 -1.548824 -1.270208 1.426253 -0.451363 -7.073410 5.576745 3.284551 11.107222 -9.698424 0.000000 -0.000000 0.000000 1.633306 -1.244627 -0.066588 -2.293585 0.827868 8.674197 1.738804 -8.889142 -8.490370 0.000000 -0.000000 0.000000 -0.796847 1.646802 4.926587 0.712914 -3.699144 5.646533 -1.125113 0.327849 -4.563652 0.364742 0.223147 -6.234382 3.180735 -0.161080 3.479477 -30.540184 -7.423984 1.785042 -50.917664 -5.468050 16.436960 -1.711869 -19.007208 6.749332 -6.263142 -8.288073 6.799236 29.325134 11.352552 4.127377 53.992281 2.923098 19.249338 -3.941973 25.554015 7.713124 3.867442 7.301031 10.001546 
1.259935 0.720682 0.997870 -95.158228 0.196354 85.030844 -1.509272 -1.248770 1.487265 -0.488969 -7.111260 5.657649 3.203280 11.086470 -9.715388 0.000000 -0.000000 0.000000 1.655783 -1.302426 0.060088 -2.290293 0.853009 8.687918 1.754505 -8.946223 -8.495279 0.000000 -0.000000 0.000000 -0.868696 1.668619 4.866828 0.774104 -3.752105 5.778071 -1.089370 0.331034 -4.576210 0.533023 0.103754 -6.365336 3.166375 -0.215837 3.984920 -30.655661 -7.651593 1.981611 -50.770091 -5.614037 16.625384 -1.809701 -19.209096 7.164107 -5.757899 -8.147523 6.782841 29.343230 11.385549 4.201419 53.622969 3.061170 19.183255 -4.108847 25.593156 7.352770 3.488085 6.857232 9.570558 
